<svg width="62" height="62" viewBox="0 0 62 62" fill="none" xmlns="http://www.w3.org/2000/svg">
<rect width="62" height="62" fill="#FEFD7E"/>
<path d="M9.99163 27.7821C9.24496 27.7821 8.54963 27.6561 7.90563 27.4041C7.27096 27.1428 6.71563 26.7834 6.23963 26.3261C5.76363 25.8688 5.39029 25.3368 5.11963 24.7301C4.85829 24.1141 4.72762 23.4514 4.72762 22.7421C4.72762 22.0234 4.85829 21.3608 5.11963 20.7541C5.39029 20.1381 5.76363 19.6014 6.23963 19.1441C6.72496 18.6868 7.28496 18.3321 7.91963 18.0801C8.56363 17.8188 9.25429 17.6881 9.99163 17.6881C10.533 17.6881 11.065 17.7674 11.5876 17.9261C12.1103 18.0848 12.591 18.3088 13.0296 18.5981C13.4776 18.8781 13.851 19.2141 14.1496 19.6061L12.5256 21.2021C12.1803 20.7634 11.793 20.4368 11.3636 20.2221C10.9436 20.0074 10.4863 19.9001 9.99163 19.9001C9.59963 19.9001 9.23096 19.9748 8.88563 20.1241C8.54963 20.2641 8.25563 20.4601 8.00363 20.7121C7.75163 20.9641 7.55563 21.2628 7.41563 21.6081C7.27563 21.9534 7.20563 22.3314 7.20563 22.7421C7.20563 23.1434 7.27563 23.5168 7.41563 23.8621C7.56496 24.1981 7.76563 24.4968 8.01763 24.7581C8.27896 25.0101 8.58229 25.2061 8.92763 25.3461C9.28229 25.4861 9.66496 25.5561 10.0756 25.5561C10.5516 25.5561 10.9903 25.4534 11.3916 25.2481C11.8023 25.0428 12.171 24.7394 12.4976 24.3381L14.0796 25.8921C13.781 26.2748 13.4123 26.6108 12.9736 26.9001C12.535 27.1801 12.059 27.3994 11.5456 27.5581C11.0323 27.7074 10.5143 27.7821 9.99163 27.7821ZM19.78 27.7961C19.0427 27.7961 18.3567 27.6701 17.722 27.4181C17.0874 27.1568 16.532 26.7974 16.056 26.3401C15.58 25.8734 15.2067 25.3368 14.936 24.7301C14.6747 24.1141 14.544 23.4514 14.544 22.7421C14.544 22.0328 14.6747 21.3748 14.936 20.7681C15.2067 20.1521 15.58 19.6154 16.056 19.1581C16.532 18.6914 17.0874 18.3321 17.722 18.0801C18.3567 17.8188 19.0427 17.6881 19.78 17.6881C20.5174 17.6881 21.2034 17.8188 21.838 18.0801C22.4727 18.3321 23.028 18.6914 23.504 19.1581C23.98 19.6154 24.3487 20.1521 24.61 20.7681C24.8807 21.3748 25.016 22.0328 25.016 22.7421C25.016 23.4514 24.8807 24.1141 24.61 24.7301C24.3487 25.3368 23.98 25.8734 23.504 26.3401C23.028 26.7974 22.4727 27.1568 21.838 27.4181C21.2034 27.6701 20.5174 27.7961 19.78 27.7961ZM19.78 25.5841C20.172 25.5841 20.536 25.5141 20.872 25.3741C21.208 25.2248 21.4974 25.0241 21.74 24.7721C21.992 24.5201 22.188 24.2214 22.328 23.8761C22.468 23.5214 22.538 23.1434 22.538 22.7421C22.538 22.3314 22.468 21.9534 22.328 21.6081C22.188 21.2628 21.992 20.9641 21.74 20.7121C21.4974 20.4601 21.208 20.2641 20.872 20.1241C20.536 19.9748 20.172 19.9001 19.78 19.9001C19.388 19.9001 19.024 19.9748 18.688 20.1241C18.352 20.2641 18.058 20.4601 17.806 20.7121C17.5634 20.9641 17.372 21.2628 17.232 21.6081C17.092 21.9534 17.022 22.3314 17.022 22.7421C17.022 23.1434 17.092 23.5214 17.232 23.8761C17.372 24.2214 17.5634 24.5201 17.806 24.7721C18.058 25.0241 18.352 25.2248 18.688 25.3741C19.024 25.5141 19.388 25.5841 19.78 25.5841ZM26.2964 27.6421V17.8421H29.3344L31.7564 22.4621L34.1784 17.8421H37.2164V27.6421H34.9484V20.9641L31.7284 26.9421L28.5084 20.9361V27.6421H26.2964ZM38.8472 27.6421V17.8421H41.8852L44.3072 22.4621L46.7292 17.8421H49.7672V27.6421H47.4992V20.9641L44.2792 26.9421L41.0592 20.9361V27.6421H38.8472ZM9.99163 41.7821C9.24496 41.7821 8.54963 41.6561 7.90563 41.4041C7.27096 41.1428 6.71563 40.7834 6.23963 40.3261C5.76363 39.8688 5.39029 39.3368 5.11963 38.7301C4.85829 38.1141 4.72762 37.4514 4.72762 36.7421C4.72762 36.0234 4.85829 35.3608 5.11963 34.7541C5.39029 34.1381 5.76363 33.6014 6.23963 33.1441C6.72496 32.6868 7.28496 32.3321 7.91963 32.0801C8.56363 31.8188 9.25429 31.6881 9.99163 31.6881C10.533 31.6881 11.065 31.7674 11.5876 31.9261C12.1103 32.0848 12.591 32.3088 13.0296 32.5981C13.4776 32.8781 13.851 33.2141 14.1496 33.6061L12.5256 35.2021C12.1803 34.7634 11.793 34.4368 11.3636 34.2221C10.9436 34.0074 10.4863 33.9001 9.99163 33.9001C9.59963 33.9001 9.23096 33.9748 8.88563 34.1241C8.54963 34.2641 8.25563 34.4601 8.00363 34.7121C7.75163 34.9641 7.55563 35.2628 7.41563 35.6081C7.27563 35.9534 7.20563 36.3314 7.20563 36.7421C7.20563 37.1434 7.27563 37.5168 7.41563 37.8621C7.56496 38.1981 7.76563 38.4968 8.01763 38.7581C8.27896 39.0101 8.58229 39.2061 8.92763 39.3461C9.28229 39.4861 9.66496 39.5561 10.0756 39.5561C10.5516 39.5561 10.9903 39.4534 11.3916 39.2481C11.8023 39.0428 12.171 38.7394 12.4976 38.3381L14.0796 39.8921C13.781 40.2748 13.4123 40.6108 12.9736 40.9001C12.535 41.1801 12.059 41.3994 11.5456 41.5581C11.0323 41.7074 10.5143 41.7821 9.99163 41.7821ZM15.0991 41.6421V31.8421H17.5071V39.5141H22.6731V41.6421H15.0991ZM24.0132 41.6421V31.8421H26.4212V41.6421H24.0132ZM28.0464 41.6421V31.8421H31.0844L33.5064 36.4621L35.9284 31.8421H38.9664V41.6421H36.6984V34.9641L33.4784 40.9421L30.2584 34.9361V41.6421H28.0464ZM39.6872 41.6421L43.7052 31.8421H46.4632L50.4252 41.6421H47.8212L46.9252 39.2761H43.1032L42.1932 41.6421H39.6872ZM43.8312 37.3581H46.2112L45.0352 34.2221L43.8312 37.3581ZM51.9658 41.6421V33.9701H48.7598V31.8421H57.5798V33.9701H54.3738V41.6421H51.9658Z" fill="#1E675E"/>
</svg>