<svg width="746" height="592" viewBox="0 0 746 592" fill="none" xmlns="http://www.w3.org/2000/svg">
<circle cx="377.3" cy="298.228" r="249.729" stroke="#2F3631"/>
<circle cx="377.688" cy="48.9449" r="7.10164" transform="rotate(47.7288 377.688 48.9449)" fill="#2F3631"/>
<circle cx="376.5" cy="548.567" r="7.10164" transform="rotate(47.7288 376.5 548.567)" fill="#2F3631"/>
<circle cx="127.9" cy="298.369" r="7.10164" transform="rotate(-96.8701 127.9 298.369)" fill="#2F3631"/>
<circle cx="626.687" cy="304.144" r="7.10164" transform="rotate(-96.8701 626.687 304.144)" fill="#2F3631"/>
<path d="M301.45 291.5C298.783 291.5 296.3 291.05 294 290.15C291.733 289.217 289.75 287.933 288.05 286.3C286.35 284.667 285.017 282.767 284.05 280.6C283.117 278.4 282.65 276.033 282.65 273.5C282.65 270.933 283.117 268.567 284.05 266.4C285.017 264.2 286.35 262.283 288.05 260.65C289.783 259.017 291.783 257.75 294.05 256.85C296.35 255.917 298.817 255.45 301.45 255.45C303.383 255.45 305.283 255.733 307.15 256.3C309.017 256.867 310.733 257.667 312.3 258.7C313.9 259.7 315.233 260.9 316.3 262.3L310.5 268C309.267 266.433 307.883 265.267 306.35 264.5C304.85 263.733 303.217 263.35 301.45 263.35C300.05 263.35 298.733 263.617 297.5 264.15C296.3 264.65 295.25 265.35 294.35 266.25C293.45 267.15 292.75 268.217 292.25 269.45C291.75 270.683 291.5 272.033 291.5 273.5C291.5 274.933 291.75 276.267 292.25 277.5C292.783 278.7 293.5 279.767 294.4 280.7C295.333 281.6 296.417 282.3 297.65 282.8C298.917 283.3 300.283 283.55 301.75 283.55C303.45 283.55 305.017 283.183 306.45 282.45C307.917 281.717 309.233 280.633 310.4 279.2L316.05 284.75C314.983 286.117 313.667 287.317 312.1 288.35C310.533 289.35 308.833 290.133 307 290.7C305.167 291.233 303.317 291.5 301.45 291.5ZM336.409 291.55C333.775 291.55 331.325 291.1 329.059 290.2C326.792 289.267 324.809 287.983 323.109 286.35C321.409 284.683 320.075 282.767 319.109 280.6C318.175 278.4 317.709 276.033 317.709 273.5C317.709 270.967 318.175 268.617 319.109 266.45C320.075 264.25 321.409 262.333 323.109 260.7C324.809 259.033 326.792 257.75 329.059 256.85C331.325 255.917 333.775 255.45 336.409 255.45C339.042 255.45 341.492 255.917 343.759 256.85C346.025 257.75 348.009 259.033 349.709 260.7C351.409 262.333 352.725 264.25 353.659 266.45C354.625 268.617 355.109 270.967 355.109 273.5C355.109 276.033 354.625 278.4 353.659 280.6C352.725 282.767 351.409 284.683 349.709 286.35C348.009 287.983 346.025 289.267 343.759 290.2C341.492 291.1 339.042 291.55 336.409 291.55ZM336.409 283.65C337.809 283.65 339.109 283.4 340.309 282.9C341.509 282.367 342.542 281.65 343.409 280.75C344.309 279.85 345.009 278.783 345.509 277.55C346.009 276.283 346.259 274.933 346.259 273.5C346.259 272.033 346.009 270.683 345.509 269.45C345.009 268.217 344.309 267.15 343.409 266.25C342.542 265.35 341.509 264.65 340.309 264.15C339.109 263.617 337.809 263.35 336.409 263.35C335.009 263.35 333.709 263.617 332.509 264.15C331.309 264.65 330.259 265.35 329.359 266.25C328.492 267.15 327.809 268.217 327.309 269.45C326.809 270.683 326.559 272.033 326.559 273.5C326.559 274.933 326.809 276.283 327.309 277.55C327.809 278.783 328.492 279.85 329.359 280.75C330.259 281.65 331.309 282.367 332.509 282.9C333.709 283.4 335.009 283.65 336.409 283.65ZM359.681 291V256H370.531L379.181 272.5L387.831 256H398.681V291H390.581V267.15L379.081 288.5L367.581 267.05V291H359.681ZM404.505 291V256H415.355L424.005 272.5L432.655 256H443.505V291H435.405V267.15L423.905 288.5L412.405 267.05V291H404.505ZM301.45 341.5C298.783 341.5 296.3 341.05 294 340.15C291.733 339.217 289.75 337.933 288.05 336.3C286.35 334.667 285.017 332.767 284.05 330.6C283.117 328.4 282.65 326.033 282.65 323.5C282.65 320.933 283.117 318.567 284.05 316.4C285.017 314.2 286.35 312.283 288.05 310.65C289.783 309.017 291.783 307.75 294.05 306.85C296.35 305.917 298.817 305.45 301.45 305.45C303.383 305.45 305.283 305.733 307.15 306.3C309.017 306.867 310.733 307.667 312.3 308.7C313.9 309.7 315.233 310.9 316.3 312.3L310.5 318C309.267 316.433 307.883 315.267 306.35 314.5C304.85 313.733 303.217 313.35 301.45 313.35C300.05 313.35 298.733 313.617 297.5 314.15C296.3 314.65 295.25 315.35 294.35 316.25C293.45 317.15 292.75 318.217 292.25 319.45C291.75 320.683 291.5 322.033 291.5 323.5C291.5 324.933 291.75 326.267 292.25 327.5C292.783 328.7 293.5 329.767 294.4 330.7C295.333 331.6 296.417 332.3 297.65 332.8C298.917 333.3 300.283 333.55 301.75 333.55C303.45 333.55 305.017 333.183 306.45 332.45C307.917 331.717 309.233 330.633 310.4 329.2L316.05 334.75C314.983 336.117 313.667 337.317 312.1 338.35C310.533 339.35 308.833 340.133 307 340.7C305.167 341.233 303.317 341.5 301.45 341.5ZM319.691 341V306H328.291V333.4H346.741V341H319.691ZM351.527 341V306H360.127V341H351.527ZM365.931 341V306H376.781L385.431 322.5L394.081 306H404.931V341H396.831V317.15L385.331 338.5L373.831 317.05V341H365.931ZM407.505 341L421.855 306H431.705L445.855 341H436.555L433.355 332.55H419.705L416.455 341H407.505ZM422.305 325.7H430.805L426.605 314.5L422.305 325.7ZM451.358 341V313.6H439.908V306H471.408V313.6H459.958V341H451.358Z" fill="#2F3631"/>
<path d="M308.072 21.2C307.192 21.2 306.405 21.0133 305.712 20.64C305.032 20.2667 304.492 19.68 304.092 18.88C303.705 18.0667 303.512 17.0067 303.512 15.7C303.512 14.2733 303.705 13.1533 304.092 12.34C304.492 11.5133 305.025 10.9333 305.692 10.6C306.372 10.2533 307.132 10.08 307.972 10.08C308.532 10.08 309.079 10.1533 309.612 10.3C310.145 10.4467 310.585 10.6733 310.932 10.98C311.279 11.2733 311.452 11.6533 311.452 12.12C311.452 12.4267 311.385 12.6733 311.252 12.86C311.119 13.0467 310.919 13.18 310.652 13.26C310.399 13.34 310.072 13.38 309.672 13.38C309.672 12.9533 309.619 12.5667 309.512 12.22C309.419 11.8733 309.252 11.6 309.012 11.4C308.772 11.1867 308.425 11.08 307.972 11.08C307.465 11.08 307.019 11.2133 306.632 11.48C306.259 11.7467 305.965 12.2133 305.752 12.88C305.552 13.5467 305.452 14.48 305.452 15.68C305.452 16.6267 305.552 17.4133 305.752 18.04C305.965 18.6667 306.292 19.1333 306.732 19.44C307.172 19.7467 307.752 19.9 308.472 19.9C308.885 19.9 309.265 19.84 309.612 19.72C309.959 19.6 310.259 19.4333 310.512 19.22C310.779 19.0067 310.985 18.7667 311.132 18.5C311.239 18.58 311.319 18.6867 311.372 18.82C311.439 18.94 311.472 19.0933 311.472 19.28C311.472 19.5867 311.345 19.8867 311.092 20.18C310.839 20.4733 310.459 20.72 309.952 20.92C309.459 21.1067 308.832 21.2 308.072 21.2ZM317.996 21.2C316.556 21.2 315.423 20.74 314.596 19.82C313.769 18.9 313.356 17.5 313.356 15.62C313.356 13.7533 313.749 12.3667 314.536 11.46C315.336 10.54 316.509 10.08 318.056 10.08C319.496 10.08 320.629 10.54 321.456 11.46C322.283 12.3667 322.696 13.7533 322.696 15.62C322.696 17.5 322.296 18.9 321.496 19.82C320.709 20.74 319.543 21.2 317.996 21.2ZM318.036 20.16C318.703 20.16 319.236 19.9933 319.636 19.66C320.036 19.3133 320.323 18.8 320.496 18.12C320.669 17.44 320.756 16.6067 320.756 15.62C320.756 14.62 320.663 13.7933 320.476 13.14C320.303 12.4733 320.016 11.9733 319.616 11.64C319.216 11.3067 318.683 11.14 318.016 11.14C317.349 11.14 316.816 11.3067 316.416 11.64C316.016 11.9733 315.729 12.4733 315.556 13.14C315.383 13.7933 315.296 14.62 315.296 15.62C315.296 16.6067 315.383 17.44 315.556 18.12C315.743 18.8 316.036 19.3133 316.436 19.66C316.836 19.9933 317.369 20.16 318.036 20.16ZM324.359 21V20.16H324.619C324.925 20.16 325.192 20.1267 325.419 20.06C325.645 19.9933 325.825 19.86 325.959 19.66C326.092 19.4467 326.159 19.1333 326.159 18.72V12.48C326.159 12.08 326.092 11.7867 325.959 11.6C325.825 11.4 325.639 11.2733 325.399 11.22C325.172 11.1533 324.912 11.12 324.619 11.12H324.559V10.28H327.699L327.959 11.9H328.059C328.325 11.3933 328.612 11.0133 328.919 10.76C329.225 10.4933 329.559 10.3133 329.919 10.22C330.279 10.1267 330.665 10.08 331.079 10.08C331.505 10.08 331.905 10.14 332.279 10.26C332.665 10.38 333.005 10.5733 333.299 10.84C333.592 11.0933 333.819 11.4467 333.979 11.9H334.139C334.405 11.3933 334.699 11.0133 335.019 10.76C335.352 10.4933 335.705 10.3133 336.079 10.22C336.465 10.1267 336.865 10.08 337.279 10.08C338.305 10.08 339.105 10.3933 339.679 11.02C340.252 11.6333 340.539 12.6267 340.539 14V18.72C340.539 19.1333 340.605 19.4467 340.739 19.66C340.872 19.86 341.052 19.9933 341.279 20.06C341.519 20.1267 341.785 20.16 342.079 20.16H342.139V21H338.659V14.1C338.659 13.2333 338.499 12.56 338.179 12.08C337.872 11.6 337.332 11.36 336.559 11.36C336.012 11.36 335.572 11.5 335.239 11.78C334.919 12.0467 334.685 12.4067 334.539 12.86C334.405 13.3133 334.339 13.8067 334.339 14.34V18.72C334.339 19.1333 334.405 19.4467 334.539 19.66C334.672 19.86 334.852 19.9933 335.079 20.06C335.319 20.1267 335.585 20.16 335.879 20.16H335.939V21H332.459V14.1C332.459 13.2333 332.299 12.56 331.979 12.08C331.672 11.6 331.132 11.36 330.359 11.36C329.785 11.36 329.325 11.5133 328.979 11.82C328.645 12.1133 328.405 12.5067 328.259 13C328.112 13.4933 328.039 14.0267 328.039 14.6V18.82C328.039 19.2067 328.112 19.5 328.259 19.7C328.419 19.8867 328.619 20.0133 328.859 20.08C329.112 20.1333 329.385 20.16 329.679 20.16H329.739V21H324.359ZM343.265 21V20.16H343.525C343.832 20.16 344.098 20.1267 344.325 20.06C344.552 19.9933 344.732 19.86 344.865 19.66C344.998 19.4467 345.065 19.1333 345.065 18.72V12.48C345.065 12.08 344.998 11.7867 344.865 11.6C344.732 11.4 344.545 11.2733 344.305 11.22C344.078 11.1533 343.818 11.12 343.525 11.12H343.465V10.28H346.605L346.865 11.9H346.965C347.232 11.3933 347.518 11.0133 347.825 10.76C348.132 10.4933 348.465 10.3133 348.825 10.22C349.185 10.1267 349.572 10.08 349.985 10.08C350.412 10.08 350.812 10.14 351.185 10.26C351.572 10.38 351.912 10.5733 352.205 10.84C352.498 11.0933 352.725 11.4467 352.885 11.9H353.045C353.312 11.3933 353.605 11.0133 353.925 10.76C354.258 10.4933 354.612 10.3133 354.985 10.22C355.372 10.1267 355.772 10.08 356.185 10.08C357.212 10.08 358.012 10.3933 358.585 11.02C359.158 11.6333 359.445 12.6267 359.445 14V18.72C359.445 19.1333 359.512 19.4467 359.645 19.66C359.778 19.86 359.958 19.9933 360.185 20.06C360.425 20.1267 360.692 20.16 360.985 20.16H361.045V21H357.565V14.1C357.565 13.2333 357.405 12.56 357.085 12.08C356.778 11.6 356.238 11.36 355.465 11.36C354.918 11.36 354.478 11.5 354.145 11.78C353.825 12.0467 353.592 12.4067 353.445 12.86C353.312 13.3133 353.245 13.8067 353.245 14.34V18.72C353.245 19.1333 353.312 19.4467 353.445 19.66C353.578 19.86 353.758 19.9933 353.985 20.06C354.225 20.1267 354.492 20.16 354.785 20.16H354.845V21H351.365V14.1C351.365 13.2333 351.205 12.56 350.885 12.08C350.578 11.6 350.038 11.36 349.265 11.36C348.692 11.36 348.232 11.5133 347.885 11.82C347.552 12.1133 347.312 12.5067 347.165 13C347.018 13.4933 346.945 14.0267 346.945 14.6V18.82C346.945 19.2067 347.018 19.5 347.165 19.7C347.325 19.8867 347.525 20.0133 347.765 20.08C348.018 20.1333 348.292 20.16 348.585 20.16H348.645V21H343.265ZM367.071 21.2C366.018 21.2 365.205 20.8933 364.631 20.28C364.058 19.6533 363.771 18.6533 363.771 17.28V12.48C363.771 12.08 363.691 11.7867 363.531 11.6C363.385 11.4 363.185 11.2733 362.931 11.22C362.691 11.1533 362.425 11.12 362.131 11.12H362.071V10.28H365.651V17.18C365.651 17.7533 365.711 18.2467 365.831 18.66C365.965 19.0733 366.185 19.3867 366.491 19.6C366.798 19.8133 367.218 19.92 367.751 19.92C368.338 19.92 368.818 19.7867 369.191 19.52C369.565 19.24 369.838 18.86 370.011 18.38C370.185 17.8867 370.271 17.32 370.271 16.68V12.56C370.271 12.1333 370.198 11.82 370.051 11.62C369.905 11.42 369.705 11.2867 369.451 11.22C369.211 11.1533 368.938 11.12 368.631 11.12H368.571V10.28H372.151V18.82C372.151 19.2067 372.225 19.5 372.371 19.7C372.531 19.8867 372.731 20.0133 372.971 20.08C373.225 20.1333 373.498 20.16 373.791 20.16H373.851V21H370.671L370.411 19.38H370.311C370.111 19.7533 369.885 20.06 369.631 20.3C369.391 20.54 369.138 20.7267 368.871 20.86C368.605 20.98 368.318 21.0667 368.011 21.12C367.705 21.1733 367.391 21.2 367.071 21.2ZM374.867 21V20.16H375.027C375.333 20.16 375.607 20.1267 375.847 20.06C376.1 19.9933 376.3 19.86 376.447 19.66C376.593 19.4467 376.667 19.1333 376.667 18.72V12.48C376.667 12.08 376.593 11.7867 376.447 11.6C376.3 11.4 376.107 11.2733 375.867 11.22C375.627 11.1533 375.36 11.12 375.067 11.12H374.967V10.28H378.207L378.467 11.9H378.567C378.847 11.3933 379.14 11.0133 379.447 10.76C379.767 10.4933 380.113 10.3133 380.487 10.22C380.86 10.1267 381.26 10.08 381.687 10.08C382.74 10.08 383.56 10.3933 384.147 11.02C384.747 11.6333 385.047 12.6267 385.047 14V18.72C385.047 19.1333 385.107 19.4467 385.227 19.66C385.36 19.86 385.54 19.9933 385.767 20.06C385.993 20.1267 386.253 20.16 386.547 20.16H386.647V21H383.167V14.1C383.167 13.2333 383 12.56 382.667 12.08C382.347 11.6 381.78 11.36 380.967 11.36C380.367 11.36 379.887 11.5133 379.527 11.82C379.18 12.1133 378.927 12.5067 378.767 13C378.62 13.4933 378.547 14.0267 378.547 14.6V18.82C378.547 19.2067 378.62 19.5 378.767 19.7C378.913 19.8867 379.107 20.0133 379.347 20.08C379.587 20.1333 379.853 20.16 380.147 20.16H380.247V21H374.867ZM387.657 21V20.16H387.917C388.211 20.16 388.477 20.1333 388.717 20.08C388.971 20.0133 389.171 19.8867 389.317 19.7C389.477 19.5 389.557 19.2067 389.557 18.82V12.48C389.557 12.08 389.477 11.7867 389.317 11.6C389.171 11.4 388.971 11.2733 388.717 11.22C388.477 11.1533 388.211 11.12 387.917 11.12H387.857V10.28H391.437V18.72C391.437 19.1333 391.511 19.4467 391.657 19.66C391.804 19.86 392.004 19.9933 392.257 20.06C392.511 20.1267 392.784 20.16 393.077 20.16H393.337V21H387.657ZM390.417 8.28C390.097 8.28 389.824 8.18667 389.597 8C389.384 7.81333 389.277 7.49333 389.277 7.04C389.277 6.57333 389.384 6.25333 389.597 6.08C389.824 5.89333 390.097 5.8 390.417 5.8C390.724 5.8 390.991 5.89333 391.217 6.08C391.444 6.25333 391.557 6.57333 391.557 7.04C391.557 7.49333 391.444 7.81333 391.217 8C390.991 8.18667 390.724 8.28 390.417 8.28ZM399.264 21.2C398.384 21.2 397.597 21.0133 396.904 20.64C396.224 20.2667 395.684 19.68 395.284 18.88C394.897 18.0667 394.704 17.0067 394.704 15.7C394.704 14.2733 394.897 13.1533 395.284 12.34C395.684 11.5133 396.217 10.9333 396.884 10.6C397.564 10.2533 398.324 10.08 399.164 10.08C399.724 10.08 400.27 10.1533 400.804 10.3C401.337 10.4467 401.777 10.6733 402.124 10.98C402.47 11.2733 402.644 11.6533 402.644 12.12C402.644 12.4267 402.577 12.6733 402.444 12.86C402.31 13.0467 402.11 13.18 401.844 13.26C401.59 13.34 401.264 13.38 400.864 13.38C400.864 12.9533 400.81 12.5667 400.704 12.22C400.61 11.8733 400.444 11.6 400.204 11.4C399.964 11.1867 399.617 11.08 399.164 11.08C398.657 11.08 398.21 11.2133 397.824 11.48C397.45 11.7467 397.157 12.2133 396.944 12.88C396.744 13.5467 396.644 14.48 396.644 15.68C396.644 16.6267 396.744 17.4133 396.944 18.04C397.157 18.6667 397.484 19.1333 397.924 19.44C398.364 19.7467 398.944 19.9 399.664 19.9C400.077 19.9 400.457 19.84 400.804 19.72C401.15 19.6 401.45 19.4333 401.704 19.22C401.97 19.0067 402.177 18.7667 402.324 18.5C402.43 18.58 402.51 18.6867 402.564 18.82C402.63 18.94 402.664 19.0933 402.664 19.28C402.664 19.5867 402.537 19.8867 402.284 20.18C402.03 20.4733 401.65 20.72 401.144 20.92C400.65 21.1067 400.024 21.2 399.264 21.2ZM407.547 21.2C406.961 21.2 406.427 21.0867 405.947 20.86C405.481 20.62 405.114 20.2667 404.847 19.8C404.581 19.32 404.447 18.72 404.447 18C404.447 16.9333 404.821 16.1467 405.567 15.64C406.327 15.1333 407.474 14.8533 409.007 14.8L410.667 14.74V13.54C410.667 13.06 410.627 12.64 410.547 12.28C410.467 11.9067 410.294 11.6133 410.027 11.4C409.761 11.1867 409.354 11.08 408.807 11.08C408.301 11.08 407.914 11.1733 407.647 11.36C407.381 11.5467 407.201 11.8067 407.107 12.14C407.027 12.46 406.987 12.8333 406.987 13.26C406.427 13.26 406.001 13.1667 405.707 12.98C405.427 12.78 405.287 12.4533 405.287 12C405.287 11.5333 405.447 11.16 405.767 10.88C406.101 10.6 406.541 10.4 407.087 10.28C407.634 10.1467 408.234 10.08 408.887 10.08C410.114 10.08 411.027 10.34 411.627 10.86C412.241 11.38 412.547 12.2733 412.547 13.54V18.72C412.547 19.0933 412.587 19.3867 412.667 19.6C412.747 19.8 412.881 19.9467 413.067 20.04C413.254 20.12 413.494 20.16 413.787 20.16H413.847V21H411.147L410.827 19.28H410.667C410.387 19.6533 410.114 19.9867 409.847 20.28C409.581 20.56 409.267 20.7867 408.907 20.96C408.561 21.12 408.107 21.2 407.547 21.2ZM408.007 19.96C408.554 19.96 409.021 19.8467 409.407 19.62C409.807 19.3933 410.114 19.0733 410.327 18.66C410.554 18.2333 410.667 17.74 410.667 17.18V15.56L409.387 15.62C408.627 15.6467 408.027 15.76 407.587 15.96C407.161 16.16 406.854 16.44 406.667 16.8C406.481 17.1467 406.387 17.58 406.387 18.1C406.387 18.5133 406.447 18.86 406.567 19.14C406.687 19.4067 406.867 19.6133 407.107 19.76C407.347 19.8933 407.647 19.96 408.007 19.96ZM419.517 21.2C418.503 21.2 417.763 20.9733 417.297 20.52C416.843 20.0533 416.617 19.2467 416.617 18.1V11.42H415.097V10.62C415.337 10.62 415.603 10.5733 415.897 10.48C416.19 10.3733 416.443 10.2067 416.657 9.98C416.883 9.74 417.07 9.44667 417.217 9.1C417.363 8.75333 417.483 8.32667 417.577 7.82H418.497V10.28H421.117V11.42H418.497V18.16C418.497 18.84 418.637 19.34 418.917 19.66C419.197 19.98 419.563 20.14 420.017 20.14C420.257 20.14 420.477 20.1267 420.677 20.1C420.877 20.0733 421.083 20.04 421.297 20V20.88C421.123 20.96 420.863 21.0333 420.517 21.1C420.17 21.1667 419.837 21.2 419.517 21.2ZM422.208 21V20.16H422.468C422.761 20.16 423.028 20.1333 423.268 20.08C423.521 20.0133 423.721 19.8867 423.868 19.7C424.028 19.5 424.108 19.2067 424.108 18.82V12.48C424.108 12.08 424.028 11.7867 423.868 11.6C423.721 11.4 423.521 11.2733 423.268 11.22C423.028 11.1533 422.761 11.12 422.468 11.12H422.408V10.28H425.988V18.72C425.988 19.1333 426.061 19.4467 426.208 19.66C426.355 19.86 426.555 19.9933 426.808 20.06C427.061 20.1267 427.335 20.16 427.628 20.16H427.888V21H422.208ZM424.968 8.28C424.648 8.28 424.375 8.18667 424.148 8C423.935 7.81333 423.828 7.49333 423.828 7.04C423.828 6.57333 423.935 6.25333 424.148 6.08C424.375 5.89333 424.648 5.8 424.968 5.8C425.275 5.8 425.541 5.89333 425.768 6.08C425.995 6.25333 426.108 6.57333 426.108 7.04C426.108 7.49333 425.995 7.81333 425.768 8C425.541 8.18667 425.275 8.28 424.968 8.28ZM433.894 21.2C432.454 21.2 431.321 20.74 430.494 19.82C429.668 18.9 429.254 17.5 429.254 15.62C429.254 13.7533 429.648 12.3667 430.434 11.46C431.234 10.54 432.408 10.08 433.954 10.08C435.394 10.08 436.528 10.54 437.354 11.46C438.181 12.3667 438.594 13.7533 438.594 15.62C438.594 17.5 438.194 18.9 437.394 19.82C436.608 20.74 435.441 21.2 433.894 21.2ZM433.934 20.16C434.601 20.16 435.134 19.9933 435.534 19.66C435.934 19.3133 436.221 18.8 436.394 18.12C436.568 17.44 436.654 16.6067 436.654 15.62C436.654 14.62 436.561 13.7933 436.374 13.14C436.201 12.4733 435.914 11.9733 435.514 11.64C435.114 11.3067 434.581 11.14 433.914 11.14C433.248 11.14 432.714 11.3067 432.314 11.64C431.914 11.9733 431.628 12.4733 431.454 13.14C431.281 13.7933 431.194 14.62 431.194 15.62C431.194 16.6067 431.281 17.44 431.454 18.12C431.641 18.8 431.934 19.3133 432.334 19.66C432.734 19.9933 433.268 20.16 433.934 20.16ZM440.257 21V20.16H440.417C440.724 20.16 440.997 20.1267 441.237 20.06C441.491 19.9933 441.691 19.86 441.837 19.66C441.984 19.4467 442.057 19.1333 442.057 18.72V12.48C442.057 12.08 441.984 11.7867 441.837 11.6C441.691 11.4 441.497 11.2733 441.257 11.22C441.017 11.1533 440.751 11.12 440.457 11.12H440.357V10.28H443.597L443.857 11.9H443.957C444.237 11.3933 444.531 11.0133 444.837 10.76C445.157 10.4933 445.504 10.3133 445.877 10.22C446.251 10.1267 446.651 10.08 447.077 10.08C448.131 10.08 448.951 10.3933 449.537 11.02C450.137 11.6333 450.437 12.6267 450.437 14V18.72C450.437 19.1333 450.497 19.4467 450.617 19.66C450.751 19.86 450.931 19.9933 451.157 20.06C451.384 20.1267 451.644 20.16 451.937 20.16H452.037V21H448.557V14.1C448.557 13.2333 448.391 12.56 448.057 12.08C447.737 11.6 447.171 11.36 446.357 11.36C445.757 11.36 445.277 11.5133 444.917 11.82C444.571 12.1133 444.317 12.5067 444.157 13C444.011 13.4933 443.937 14.0267 443.937 14.6V18.82C443.937 19.2067 444.011 19.5 444.157 19.7C444.304 19.8867 444.497 20.0133 444.737 20.08C444.977 20.1333 445.244 20.16 445.537 20.16H445.637V21H440.257Z" fill="#2F3631"/>
<path d="M649.66 310V309.16H649.72C650.027 309.16 650.3 309.127 650.54 309.06C650.793 308.993 650.993 308.86 651.14 308.66C651.287 308.447 651.36 308.133 651.36 307.72V301.48C651.36 301.08 651.28 300.787 651.12 300.6C650.973 300.4 650.773 300.273 650.52 300.22C650.28 300.153 650.013 300.12 649.72 300.12H649.66V299.28H652.74L653.12 301.26H653.22C653.393 300.86 653.58 300.493 653.78 300.16C653.98 299.827 654.247 299.567 654.58 299.38C654.913 299.18 655.373 299.08 655.96 299.08C656.693 299.08 657.233 299.207 657.58 299.46C657.94 299.713 658.12 300.073 658.12 300.54C658.12 300.953 657.973 301.293 657.68 301.56C657.4 301.827 656.927 301.96 656.26 301.96C656.26 301.587 656.227 301.287 656.16 301.06C656.093 300.833 655.98 300.667 655.82 300.56C655.673 300.453 655.467 300.4 655.2 300.4C654.827 300.4 654.513 300.547 654.26 300.84C654.007 301.133 653.807 301.507 653.66 301.96C653.513 302.413 653.407 302.887 653.34 303.38C653.273 303.86 653.24 304.293 653.24 304.68V307.82C653.24 308.207 653.313 308.5 653.46 308.7C653.62 308.887 653.82 309.013 654.06 309.08C654.313 309.133 654.587 309.16 654.88 309.16H655.44V310H649.66ZM664.154 310.2C662.701 310.2 661.561 309.72 660.734 308.76C659.921 307.8 659.514 306.453 659.514 304.72C659.514 302.853 659.901 301.447 660.674 300.5C661.447 299.553 662.541 299.08 663.954 299.08C665.247 299.08 666.261 299.48 666.994 300.28C667.741 301.08 668.114 302.273 668.114 303.86V304.78H661.454C661.481 305.753 661.607 306.547 661.834 307.16C662.061 307.773 662.387 308.227 662.814 308.52C663.254 308.8 663.794 308.94 664.434 308.94C664.901 308.94 665.314 308.873 665.674 308.74C666.047 308.607 666.367 308.433 666.634 308.22C666.914 308.007 667.134 307.78 667.294 307.54C667.387 307.58 667.474 307.66 667.554 307.78C667.634 307.9 667.674 308.047 667.674 308.22C667.674 308.487 667.547 308.773 667.294 309.08C667.041 309.387 666.654 309.653 666.134 309.88C665.614 310.093 664.954 310.2 664.154 310.2ZM666.094 303.7C666.094 302.993 666.021 302.373 665.874 301.84C665.741 301.307 665.514 300.893 665.194 300.6C664.874 300.307 664.447 300.16 663.914 300.16C663.421 300.16 663.001 300.3 662.654 300.58C662.321 300.847 662.054 301.24 661.854 301.76C661.667 302.28 661.547 302.927 661.494 303.7H666.094ZM674.777 310.2C673.897 310.2 673.111 310.013 672.417 309.64C671.737 309.267 671.197 308.68 670.797 307.88C670.411 307.067 670.217 306.007 670.217 304.7C670.217 303.273 670.411 302.153 670.797 301.34C671.197 300.513 671.731 299.933 672.397 299.6C673.077 299.253 673.837 299.08 674.677 299.08C675.237 299.08 675.784 299.153 676.317 299.3C676.851 299.447 677.291 299.673 677.637 299.98C677.984 300.273 678.157 300.653 678.157 301.12C678.157 301.427 678.091 301.673 677.957 301.86C677.824 302.047 677.624 302.18 677.357 302.26C677.104 302.34 676.777 302.38 676.377 302.38C676.377 301.953 676.324 301.567 676.217 301.22C676.124 300.873 675.957 300.6 675.717 300.4C675.477 300.187 675.131 300.08 674.677 300.08C674.171 300.08 673.724 300.213 673.337 300.48C672.964 300.747 672.671 301.213 672.457 301.88C672.257 302.547 672.157 303.48 672.157 304.68C672.157 305.627 672.257 306.413 672.457 307.04C672.671 307.667 672.997 308.133 673.437 308.44C673.877 308.747 674.457 308.9 675.177 308.9C675.591 308.9 675.971 308.84 676.317 308.72C676.664 308.6 676.964 308.433 677.217 308.22C677.484 308.007 677.691 307.767 677.837 307.5C677.944 307.58 678.024 307.687 678.077 307.82C678.144 307.94 678.177 308.093 678.177 308.28C678.177 308.587 678.051 308.887 677.797 309.18C677.544 309.473 677.164 309.72 676.657 309.92C676.164 310.107 675.537 310.2 674.777 310.2ZM679.321 310V309.16H679.481C679.788 309.16 680.061 309.127 680.301 309.06C680.554 308.993 680.754 308.86 680.901 308.66C681.048 308.447 681.121 308.133 681.121 307.72V297C681.121 296.6 681.041 296.307 680.881 296.12C680.734 295.92 680.534 295.793 680.281 295.74C680.041 295.673 679.774 295.64 679.481 295.64H679.321V294.8H683.001V299.2C683.001 299.44 682.994 299.693 682.981 299.96C682.968 300.213 682.954 300.433 682.941 300.62C682.928 300.807 682.921 300.9 682.921 300.9H683.021C683.221 300.5 683.461 300.167 683.741 299.9C684.034 299.62 684.361 299.413 684.721 299.28C685.094 299.147 685.508 299.08 685.961 299.08C687.108 299.08 687.981 299.393 688.581 300.02C689.194 300.633 689.501 301.627 689.501 303V307.72C689.501 308.133 689.568 308.447 689.701 308.66C689.834 308.86 690.014 308.993 690.241 309.06C690.481 309.127 690.748 309.16 691.041 309.16H691.101V310H687.621V303.1C687.621 302.233 687.454 301.56 687.121 301.08C686.801 300.6 686.234 300.36 685.421 300.36C684.874 300.36 684.421 300.493 684.061 300.76C683.701 301.027 683.434 301.407 683.261 301.9C683.088 302.38 683.001 302.947 683.001 303.6V307.82C683.001 308.207 683.074 308.5 683.221 308.7C683.381 308.887 683.581 309.013 683.821 309.08C684.074 309.133 684.348 309.16 684.641 309.16H684.701V310H679.321ZM697.396 310.2C695.943 310.2 694.803 309.72 693.976 308.76C693.163 307.8 692.756 306.453 692.756 304.72C692.756 302.853 693.143 301.447 693.916 300.5C694.69 299.553 695.783 299.08 697.196 299.08C698.49 299.08 699.503 299.48 700.236 300.28C700.983 301.08 701.356 302.273 701.356 303.86V304.78H694.696C694.723 305.753 694.85 306.547 695.076 307.16C695.303 307.773 695.63 308.227 696.056 308.52C696.496 308.8 697.036 308.94 697.676 308.94C698.143 308.94 698.556 308.873 698.916 308.74C699.29 308.607 699.61 308.433 699.876 308.22C700.156 308.007 700.376 307.78 700.536 307.54C700.63 307.58 700.716 307.66 700.796 307.78C700.876 307.9 700.916 308.047 700.916 308.22C700.916 308.487 700.79 308.773 700.536 309.08C700.283 309.387 699.896 309.653 699.376 309.88C698.856 310.093 698.196 310.2 697.396 310.2ZM699.336 303.7C699.336 302.993 699.263 302.373 699.116 301.84C698.983 301.307 698.756 300.893 698.436 300.6C698.116 300.307 697.69 300.16 697.156 300.16C696.663 300.16 696.243 300.3 695.896 300.58C695.563 300.847 695.296 301.24 695.096 301.76C694.91 302.28 694.79 302.927 694.736 303.7H699.336ZM703.019 310V309.16H703.079C703.386 309.16 703.659 309.127 703.899 309.06C704.153 308.993 704.353 308.86 704.499 308.66C704.646 308.447 704.719 308.133 704.719 307.72V301.48C704.719 301.08 704.639 300.787 704.479 300.6C704.333 300.4 704.133 300.273 703.879 300.22C703.639 300.153 703.373 300.12 703.079 300.12H703.019V299.28H706.099L706.479 301.26H706.579C706.753 300.86 706.939 300.493 707.139 300.16C707.339 299.827 707.606 299.567 707.939 299.38C708.273 299.18 708.733 299.08 709.319 299.08C710.053 299.08 710.593 299.207 710.939 299.46C711.299 299.713 711.479 300.073 711.479 300.54C711.479 300.953 711.333 301.293 711.039 301.56C710.759 301.827 710.286 301.96 709.619 301.96C709.619 301.587 709.586 301.287 709.519 301.06C709.453 300.833 709.339 300.667 709.179 300.56C709.033 300.453 708.826 300.4 708.559 300.4C708.186 300.4 707.873 300.547 707.619 300.84C707.366 301.133 707.166 301.507 707.019 301.96C706.873 302.413 706.766 302.887 706.699 303.38C706.633 303.86 706.599 304.293 706.599 304.68V307.82C706.599 308.207 706.673 308.5 706.819 308.7C706.979 308.887 707.179 309.013 707.419 309.08C707.673 309.133 707.946 309.16 708.239 309.16H708.799V310H703.019ZM717.433 310.2C716.553 310.2 715.767 310.013 715.073 309.64C714.393 309.267 713.853 308.68 713.453 307.88C713.067 307.067 712.873 306.007 712.873 304.7C712.873 303.273 713.067 302.153 713.453 301.34C713.853 300.513 714.387 299.933 715.053 299.6C715.733 299.253 716.493 299.08 717.333 299.08C717.893 299.08 718.44 299.153 718.973 299.3C719.507 299.447 719.947 299.673 720.293 299.98C720.64 300.273 720.813 300.653 720.813 301.12C720.813 301.427 720.747 301.673 720.613 301.86C720.48 302.047 720.28 302.18 720.013 302.26C719.76 302.34 719.433 302.38 719.033 302.38C719.033 301.953 718.98 301.567 718.873 301.22C718.78 300.873 718.613 300.6 718.373 300.4C718.133 300.187 717.787 300.08 717.333 300.08C716.827 300.08 716.38 300.213 715.993 300.48C715.62 300.747 715.327 301.213 715.113 301.88C714.913 302.547 714.813 303.48 714.813 304.68C714.813 305.627 714.913 306.413 715.113 307.04C715.327 307.667 715.653 308.133 716.093 308.44C716.533 308.747 717.113 308.9 717.833 308.9C718.247 308.9 718.627 308.84 718.973 308.72C719.32 308.6 719.62 308.433 719.873 308.22C720.14 308.007 720.347 307.767 720.493 307.5C720.6 307.58 720.68 307.687 720.733 307.82C720.8 307.94 720.833 308.093 720.833 308.28C720.833 308.587 720.707 308.887 720.453 309.18C720.2 309.473 719.82 309.72 719.313 309.92C718.82 310.107 718.193 310.2 717.433 310.2ZM721.977 310V309.16H722.137C722.444 309.16 722.717 309.127 722.957 309.06C723.211 308.993 723.411 308.86 723.557 308.66C723.704 308.447 723.777 308.133 723.777 307.72V297C723.777 296.6 723.697 296.307 723.537 296.12C723.391 295.92 723.191 295.793 722.937 295.74C722.697 295.673 722.431 295.64 722.137 295.64H721.977V294.8H725.657V299.2C725.657 299.44 725.651 299.693 725.637 299.96C725.624 300.213 725.611 300.433 725.597 300.62C725.584 300.807 725.577 300.9 725.577 300.9H725.677C725.877 300.5 726.117 300.167 726.397 299.9C726.691 299.62 727.017 299.413 727.377 299.28C727.751 299.147 728.164 299.08 728.617 299.08C729.764 299.08 730.637 299.393 731.237 300.02C731.851 300.633 732.157 301.627 732.157 303V307.72C732.157 308.133 732.224 308.447 732.357 308.66C732.491 308.86 732.671 308.993 732.897 309.06C733.137 309.127 733.404 309.16 733.697 309.16H733.757V310H730.277V303.1C730.277 302.233 730.111 301.56 729.777 301.08C729.457 300.6 728.891 300.36 728.077 300.36C727.531 300.36 727.077 300.493 726.717 300.76C726.357 301.027 726.091 301.407 725.917 301.9C725.744 302.38 725.657 302.947 725.657 303.6V307.82C725.657 308.207 725.731 308.5 725.877 308.7C726.037 308.887 726.237 309.013 726.477 309.08C726.731 309.133 727.004 309.16 727.297 309.16H727.357V310H721.977ZM740.053 310.2C738.599 310.2 737.459 309.72 736.633 308.76C735.819 307.8 735.413 306.453 735.413 304.72C735.413 302.853 735.799 301.447 736.573 300.5C737.346 299.553 738.439 299.08 739.853 299.08C741.146 299.08 742.159 299.48 742.893 300.28C743.639 301.08 744.013 302.273 744.013 303.86V304.78H737.353C737.379 305.753 737.506 306.547 737.733 307.16C737.959 307.773 738.286 308.227 738.713 308.52C739.153 308.8 739.693 308.94 740.333 308.94C740.799 308.94 741.213 308.873 741.573 308.74C741.946 308.607 742.266 308.433 742.533 308.22C742.813 308.007 743.033 307.78 743.193 307.54C743.286 307.58 743.373 307.66 743.453 307.78C743.533 307.9 743.573 308.047 743.573 308.22C743.573 308.487 743.446 308.773 743.193 309.08C742.939 309.387 742.553 309.653 742.033 309.88C741.513 310.093 740.853 310.2 740.053 310.2ZM741.993 303.7C741.993 302.993 741.919 302.373 741.773 301.84C741.639 301.307 741.413 300.893 741.093 300.6C740.773 300.307 740.346 300.16 739.813 300.16C739.319 300.16 738.899 300.3 738.553 300.58C738.219 300.847 737.953 301.24 737.753 301.76C737.566 302.28 737.446 302.927 737.393 303.7H741.993Z" fill="#2F3631"/>
<path d="M353.108 586.2C352.521 586.2 351.988 586.087 351.508 585.86C351.041 585.62 350.674 585.267 350.408 584.8C350.141 584.32 350.008 583.72 350.008 583C350.008 581.933 350.381 581.147 351.128 580.64C351.888 580.133 353.034 579.853 354.568 579.8L356.228 579.74V578.54C356.228 578.06 356.188 577.64 356.108 577.28C356.028 576.907 355.854 576.613 355.588 576.4C355.321 576.187 354.914 576.08 354.368 576.08C353.861 576.08 353.474 576.173 353.208 576.36C352.941 576.547 352.761 576.807 352.668 577.14C352.588 577.46 352.548 577.833 352.548 578.26C351.988 578.26 351.561 578.167 351.268 577.98C350.988 577.78 350.848 577.453 350.848 577C350.848 576.533 351.008 576.16 351.328 575.88C351.661 575.6 352.101 575.4 352.648 575.28C353.194 575.147 353.794 575.08 354.448 575.08C355.674 575.08 356.588 575.34 357.188 575.86C357.801 576.38 358.108 577.273 358.108 578.54V583.72C358.108 584.093 358.148 584.387 358.228 584.6C358.308 584.8 358.441 584.947 358.628 585.04C358.814 585.12 359.054 585.16 359.348 585.16H359.408V586H356.708L356.388 584.28H356.228C355.948 584.653 355.674 584.987 355.408 585.28C355.141 585.56 354.828 585.787 354.468 585.96C354.121 586.12 353.668 586.2 353.108 586.2ZM353.568 584.96C354.114 584.96 354.581 584.847 354.968 584.62C355.368 584.393 355.674 584.073 355.888 583.66C356.114 583.233 356.228 582.74 356.228 582.18V580.56L354.948 580.62C354.188 580.647 353.588 580.76 353.148 580.96C352.721 581.16 352.414 581.44 352.228 581.8C352.041 582.147 351.948 582.58 351.948 583.1C351.948 583.513 352.008 583.86 352.128 584.14C352.248 584.407 352.428 584.613 352.668 584.76C352.908 584.893 353.208 584.96 353.568 584.96ZM365.937 586.2C365.057 586.2 364.271 586.013 363.577 585.64C362.897 585.267 362.357 584.68 361.957 583.88C361.571 583.067 361.377 582.007 361.377 580.7C361.377 579.273 361.571 578.153 361.957 577.34C362.357 576.513 362.891 575.933 363.557 575.6C364.237 575.253 364.997 575.08 365.837 575.08C366.397 575.08 366.944 575.153 367.477 575.3C368.011 575.447 368.451 575.673 368.797 575.98C369.144 576.273 369.317 576.653 369.317 577.12C369.317 577.427 369.251 577.673 369.117 577.86C368.984 578.047 368.784 578.18 368.517 578.26C368.264 578.34 367.937 578.38 367.537 578.38C367.537 577.953 367.484 577.567 367.377 577.22C367.284 576.873 367.117 576.6 366.877 576.4C366.637 576.187 366.291 576.08 365.837 576.08C365.331 576.08 364.884 576.213 364.497 576.48C364.124 576.747 363.831 577.213 363.617 577.88C363.417 578.547 363.317 579.48 363.317 580.68C363.317 581.627 363.417 582.413 363.617 583.04C363.831 583.667 364.157 584.133 364.597 584.44C365.037 584.747 365.617 584.9 366.337 584.9C366.751 584.9 367.131 584.84 367.477 584.72C367.824 584.6 368.124 584.433 368.377 584.22C368.644 584.007 368.851 583.767 368.997 583.5C369.104 583.58 369.184 583.687 369.237 583.82C369.304 583.94 369.337 584.093 369.337 584.28C369.337 584.587 369.211 584.887 368.957 585.18C368.704 585.473 368.324 585.72 367.817 585.92C367.324 586.107 366.697 586.2 365.937 586.2ZM374.921 586.2C373.908 586.2 373.168 585.973 372.701 585.52C372.248 585.053 372.021 584.247 372.021 583.1V576.42H370.501V575.62C370.741 575.62 371.008 575.573 371.301 575.48C371.594 575.373 371.848 575.207 372.061 574.98C372.288 574.74 372.474 574.447 372.621 574.1C372.768 573.753 372.888 573.327 372.981 572.82H373.901V575.28H376.521V576.42H373.901V583.16C373.901 583.84 374.041 584.34 374.321 584.66C374.601 584.98 374.968 585.14 375.421 585.14C375.661 585.14 375.881 585.127 376.081 585.1C376.281 585.073 376.488 585.04 376.701 585V585.88C376.528 585.96 376.268 586.033 375.921 586.1C375.574 586.167 375.241 586.2 374.921 586.2ZM377.612 586V585.16H377.872C378.166 585.16 378.432 585.133 378.672 585.08C378.926 585.013 379.126 584.887 379.272 584.7C379.432 584.5 379.512 584.207 379.512 583.82V577.48C379.512 577.08 379.432 576.787 379.272 576.6C379.126 576.4 378.926 576.273 378.672 576.22C378.432 576.153 378.166 576.12 377.872 576.12H377.812V575.28H381.392V583.72C381.392 584.133 381.466 584.447 381.612 584.66C381.759 584.86 381.959 584.993 382.212 585.06C382.466 585.127 382.739 585.16 383.032 585.16H383.292V586H377.612ZM380.372 573.28C380.052 573.28 379.779 573.187 379.552 573C379.339 572.813 379.232 572.493 379.232 572.04C379.232 571.573 379.339 571.253 379.552 571.08C379.779 570.893 380.052 570.8 380.372 570.8C380.679 570.8 380.946 570.893 381.172 571.08C381.399 571.253 381.512 571.573 381.512 572.04C381.512 572.493 381.399 572.813 381.172 573C380.946 573.187 380.679 573.28 380.372 573.28ZM389.299 586.2C387.859 586.2 386.725 585.74 385.899 584.82C385.072 583.9 384.659 582.5 384.659 580.62C384.659 578.753 385.052 577.367 385.839 576.46C386.639 575.54 387.812 575.08 389.359 575.08C390.799 575.08 391.932 575.54 392.759 576.46C393.585 577.367 393.999 578.753 393.999 580.62C393.999 582.5 393.599 583.9 392.799 584.82C392.012 585.74 390.845 586.2 389.299 586.2ZM389.339 585.16C390.005 585.16 390.539 584.993 390.939 584.66C391.339 584.313 391.625 583.8 391.799 583.12C391.972 582.44 392.059 581.607 392.059 580.62C392.059 579.62 391.965 578.793 391.779 578.14C391.605 577.473 391.319 576.973 390.919 576.64C390.519 576.307 389.985 576.14 389.319 576.14C388.652 576.14 388.119 576.307 387.719 576.64C387.319 576.973 387.032 577.473 386.859 578.14C386.685 578.793 386.599 579.62 386.599 580.62C386.599 581.607 386.685 582.44 386.859 583.12C387.045 583.8 387.339 584.313 387.739 584.66C388.139 584.993 388.672 585.16 389.339 585.16ZM395.662 586V585.16H395.822C396.128 585.16 396.402 585.127 396.642 585.06C396.895 584.993 397.095 584.86 397.242 584.66C397.388 584.447 397.462 584.133 397.462 583.72V577.48C397.462 577.08 397.388 576.787 397.242 576.6C397.095 576.4 396.902 576.273 396.662 576.22C396.422 576.153 396.155 576.12 395.862 576.12H395.762V575.28H399.002L399.262 576.9H399.362C399.642 576.393 399.935 576.013 400.242 575.76C400.562 575.493 400.908 575.313 401.282 575.22C401.655 575.127 402.055 575.08 402.482 575.08C403.535 575.08 404.355 575.393 404.942 576.02C405.542 576.633 405.842 577.627 405.842 579V583.72C405.842 584.133 405.902 584.447 406.022 584.66C406.155 584.86 406.335 584.993 406.562 585.06C406.788 585.127 407.048 585.16 407.342 585.16H407.442V586H403.962V579.1C403.962 578.233 403.795 577.56 403.462 577.08C403.142 576.6 402.575 576.36 401.762 576.36C401.162 576.36 400.682 576.513 400.322 576.82C399.975 577.113 399.722 577.507 399.562 578C399.415 578.493 399.342 579.027 399.342 579.6V583.82C399.342 584.207 399.415 584.5 399.562 584.7C399.708 584.887 399.902 585.013 400.142 585.08C400.382 585.133 400.648 585.16 400.942 585.16H401.042V586H395.662Z" fill="#2F3631"/>
<path d="M0.46 306L0.46 305.16H0.72C1.01333 305.16 1.28 305.133 1.52 305.08C1.77333 305.013 1.97333 304.887 2.12 304.7C2.28 304.5 2.36 304.207 2.36 303.82V297.48C2.36 297.08 2.28 296.787 2.12 296.6C1.97333 296.4 1.77333 296.273 1.52 296.22C1.28 296.153 1.01333 296.12 0.72 296.12H0.66L0.66 295.28H4.24V303.72C4.24 304.133 4.31333 304.447 4.46 304.66C4.60667 304.86 4.80667 304.993 5.06 305.06C5.31333 305.127 5.58667 305.16 5.88 305.16H6.14V306H0.46ZM3.22 293.28C2.9 293.28 2.62667 293.187 2.4 293C2.18667 292.813 2.08 292.493 2.08 292.04C2.08 291.573 2.18667 291.253 2.4 291.08C2.62667 290.893 2.9 290.8 3.22 290.8C3.52667 290.8 3.79333 290.893 4.02 291.08C4.24667 291.253 4.36 291.573 4.36 292.04C4.36 292.493 4.24667 292.813 4.02 293C3.79333 293.187 3.52667 293.28 3.22 293.28ZM6.96625 306V305.16H7.12625C7.43292 305.16 7.70625 305.127 7.94625 305.06C8.19958 304.993 8.39958 304.86 8.54625 304.66C8.69292 304.447 8.76625 304.133 8.76625 303.72L8.76625 297.48C8.76625 297.08 8.69292 296.787 8.54625 296.6C8.39958 296.4 8.20625 296.273 7.96625 296.22C7.72625 296.153 7.45958 296.12 7.16625 296.12H7.06625V295.28H10.3063L10.5663 296.9H10.6663C10.9463 296.393 11.2396 296.013 11.5462 295.76C11.8663 295.493 12.2129 295.313 12.5863 295.22C12.9596 295.127 13.3596 295.08 13.7863 295.08C14.8396 295.08 15.6596 295.393 16.2463 296.02C16.8463 296.633 17.1463 297.627 17.1463 299V303.72C17.1463 304.133 17.2063 304.447 17.3263 304.66C17.4596 304.86 17.6396 304.993 17.8663 305.06C18.0929 305.127 18.3529 305.16 18.6463 305.16H18.7463V306H15.2663L15.2663 299.1C15.2663 298.233 15.0996 297.56 14.7663 297.08C14.4463 296.6 13.8796 296.36 13.0663 296.36C12.4663 296.36 11.9863 296.513 11.6263 296.82C11.2796 297.113 11.0263 297.507 10.8663 298C10.7196 298.493 10.6463 299.027 10.6463 299.6L10.6463 303.82C10.6463 304.207 10.7196 304.5 10.8663 304.7C11.0129 304.887 11.2063 305.013 11.4463 305.08C11.6863 305.133 11.9529 305.16 12.2463 305.16H12.3463V306H6.96625ZM23.4969 306.2C22.8302 306.2 22.2502 306.12 21.7569 305.96C21.2635 305.8 20.8769 305.567 20.5969 305.26C20.3302 304.94 20.1969 304.547 20.1969 304.08C20.1969 303.72 20.2702 303.44 20.4169 303.24C20.5635 303.04 20.7302 302.9 20.9169 302.82C21.1169 302.74 21.2969 302.7 21.4569 302.7C21.4569 303.167 21.5235 303.593 21.6569 303.98C21.7902 304.367 22.0169 304.673 22.3369 304.9C22.6569 305.127 23.0835 305.24 23.6169 305.24C24.3235 305.24 24.8635 305.073 25.2369 304.74C25.6235 304.393 25.8169 303.953 25.8169 303.42C25.8169 303.087 25.7435 302.813 25.5969 302.6C25.4635 302.387 25.2169 302.18 24.8569 301.98C24.5102 301.767 24.0102 301.52 23.3569 301.24C22.6769 300.933 22.1102 300.64 21.6569 300.36C21.2169 300.067 20.8835 299.733 20.6569 299.36C20.4435 298.973 20.3369 298.493 20.3369 297.92C20.3369 297.013 20.6769 296.32 21.3569 295.84C22.0502 295.347 22.9635 295.1 24.0969 295.1C24.7369 295.1 25.2702 295.187 25.6969 295.36C26.1369 295.52 26.4635 295.74 26.6769 296.02C26.9035 296.3 27.0169 296.607 27.0169 296.94C27.0169 297.3 26.8902 297.593 26.6369 297.82C26.3969 298.033 26.0435 298.14 25.5769 298.14C25.5769 297.473 25.4369 296.953 25.1569 296.58C24.8769 296.207 24.4435 296.02 23.8569 296.02C23.4035 296.02 23.0369 296.087 22.7569 296.22C22.4769 296.353 22.2702 296.54 22.1369 296.78C22.0169 297.02 21.9569 297.3 21.9569 297.62C21.9569 297.953 22.0369 298.233 22.1969 298.46C22.3702 298.687 22.6369 298.9 22.9969 299.1C23.3702 299.287 23.8502 299.5 24.4369 299.74C25.1435 300.033 25.7169 300.327 26.1569 300.62C26.5969 300.913 26.9169 301.253 27.1169 301.64C27.3302 302.027 27.4369 302.5 27.4369 303.06C27.4369 304.1 27.0769 304.887 26.3569 305.42C25.6369 305.94 24.6835 306.2 23.4969 306.2ZM28.6803 310.8V309.96H28.8403C29.147 309.96 29.4203 309.927 29.6603 309.86C29.9136 309.793 30.1136 309.653 30.2603 309.44C30.407 309.24 30.4803 308.933 30.4803 308.52V297.48C30.4803 297.08 30.4003 296.787 30.2403 296.6C30.0936 296.4 29.8936 296.273 29.6403 296.22C29.4003 296.153 29.1336 296.12 28.8403 296.12H28.5803V295.28H32.0803L32.2803 297.08H32.3603C32.667 296.467 33.0603 295.98 33.5403 295.62C34.0203 295.26 34.647 295.08 35.4203 295.08C36.7403 295.08 37.747 295.527 38.4403 296.42C39.147 297.3 39.5003 298.7 39.5003 300.62C39.5003 302.553 39.147 303.967 38.4403 304.86C37.747 305.753 36.7403 306.2 35.4203 306.2C34.647 306.2 34.0136 306.04 33.5203 305.72C33.0403 305.387 32.6536 304.96 32.3603 304.44H32.2803C32.307 304.693 32.3203 304.967 32.3203 305.26C32.3336 305.54 32.3403 305.807 32.3403 306.06C32.3536 306.313 32.3603 306.527 32.3603 306.7V308.62C32.3603 309.007 32.4336 309.293 32.5803 309.48C32.7403 309.68 32.9403 309.807 33.1803 309.86C33.4336 309.927 33.707 309.96 34.0003 309.96H34.0603V310.8H28.6803ZM35.1003 304.92C35.687 304.92 36.1603 304.753 36.5203 304.42C36.8803 304.087 37.1403 303.6 37.3003 302.96C37.4736 302.32 37.5603 301.533 37.5603 300.6C37.5603 299.653 37.4736 298.867 37.3003 298.24C37.1403 297.613 36.8803 297.147 36.5203 296.84C36.1603 296.52 35.6803 296.36 35.0803 296.36C34.387 296.36 33.8403 296.513 33.4403 296.82C33.0536 297.127 32.7736 297.6 32.6003 298.24C32.4403 298.867 32.3603 299.66 32.3603 300.62C32.3603 301.54 32.4403 302.32 32.6003 302.96C32.7736 303.6 33.0603 304.087 33.4603 304.42C33.8603 304.753 34.407 304.92 35.1003 304.92ZM41.0655 306V305.16H41.3255C41.6188 305.16 41.8855 305.133 42.1255 305.08C42.3788 305.013 42.5788 304.887 42.7255 304.7C42.8855 304.5 42.9655 304.207 42.9655 303.82V297.48C42.9655 297.08 42.8855 296.787 42.7255 296.6C42.5788 296.4 42.3788 296.273 42.1255 296.22C41.8855 296.153 41.6188 296.12 41.3255 296.12H41.2655V295.28H44.8455V303.72C44.8455 304.133 44.9188 304.447 45.0655 304.66C45.2121 304.86 45.4121 304.993 45.6655 305.06C45.9188 305.127 46.1921 305.16 46.4855 305.16H46.7455V306H41.0655ZM43.8255 293.28C43.5055 293.28 43.2321 293.187 43.0055 293C42.7921 292.813 42.6855 292.493 42.6855 292.04C42.6855 291.573 42.7921 291.253 43.0055 291.08C43.2321 290.893 43.5055 290.8 43.8255 290.8C44.1321 290.8 44.3988 290.893 44.6255 291.08C44.8521 291.253 44.9655 291.573 44.9655 292.04C44.9655 292.493 44.8521 292.813 44.6255 293C44.3988 293.187 44.1321 293.28 43.8255 293.28ZM47.6717 306V305.16H47.7317C48.0384 305.16 48.3117 305.127 48.5517 305.06C48.8051 304.993 49.0051 304.86 49.1517 304.66C49.2984 304.447 49.3717 304.133 49.3717 303.72V297.48C49.3717 297.08 49.2917 296.787 49.1317 296.6C48.9851 296.4 48.7851 296.273 48.5317 296.22C48.2917 296.153 48.0251 296.12 47.7317 296.12H47.6717V295.28H50.7517L51.1317 297.26H51.2317C51.4051 296.86 51.5917 296.493 51.7917 296.16C51.9917 295.827 52.2584 295.567 52.5917 295.38C52.9251 295.18 53.3851 295.08 53.9717 295.08C54.7051 295.08 55.2451 295.207 55.5917 295.46C55.9517 295.713 56.1317 296.073 56.1317 296.54C56.1317 296.953 55.9851 297.293 55.6917 297.56C55.4117 297.827 54.9384 297.96 54.2717 297.96C54.2717 297.587 54.2384 297.287 54.1717 297.06C54.1051 296.833 53.9917 296.667 53.8317 296.56C53.6851 296.453 53.4784 296.4 53.2117 296.4C52.8384 296.4 52.5251 296.547 52.2717 296.84C52.0184 297.133 51.8184 297.507 51.6717 297.96C51.5251 298.413 51.4184 298.887 51.3517 299.38C51.2851 299.86 51.2517 300.293 51.2517 300.68V303.82C51.2517 304.207 51.3251 304.5 51.4717 304.7C51.6317 304.887 51.8317 305.013 52.0717 305.08C52.3251 305.133 52.5984 305.16 52.8917 305.16H53.4517V306H47.6717ZM60.1352 306.2C59.5485 306.2 59.0152 306.087 58.5352 305.86C58.0685 305.62 57.7018 305.267 57.4352 304.8C57.1685 304.32 57.0352 303.72 57.0352 303C57.0352 301.933 57.4085 301.147 58.1552 300.64C58.9152 300.133 60.0618 299.853 61.5952 299.8L63.2552 299.74V298.54C63.2552 298.06 63.2152 297.64 63.1352 297.28C63.0552 296.907 62.8818 296.613 62.6152 296.4C62.3485 296.187 61.9418 296.08 61.3952 296.08C60.8885 296.08 60.5018 296.173 60.2352 296.36C59.9685 296.547 59.7885 296.807 59.6952 297.14C59.6152 297.46 59.5752 297.833 59.5752 298.26C59.0152 298.26 58.5885 298.167 58.2952 297.98C58.0152 297.78 57.8752 297.453 57.8752 297C57.8752 296.533 58.0352 296.16 58.3552 295.88C58.6885 295.6 59.1285 295.4 59.6752 295.28C60.2218 295.147 60.8218 295.08 61.4752 295.08C62.7018 295.08 63.6152 295.34 64.2152 295.86C64.8285 296.38 65.1352 297.273 65.1352 298.54V303.72C65.1352 304.093 65.1752 304.387 65.2552 304.6C65.3352 304.8 65.4685 304.947 65.6552 305.04C65.8418 305.12 66.0818 305.16 66.3752 305.16H66.4352V306H63.7352L63.4152 304.28H63.2552C62.9752 304.653 62.7018 304.987 62.4352 305.28C62.1685 305.56 61.8552 305.787 61.4952 305.96C61.1485 306.12 60.6952 306.2 60.1352 306.2ZM60.5952 304.96C61.1418 304.96 61.6085 304.847 61.9952 304.62C62.3952 304.393 62.7018 304.073 62.9152 303.66C63.1418 303.233 63.2552 302.74 63.2552 302.18V300.56L61.9752 300.62C61.2152 300.647 60.6152 300.76 60.1752 300.96C59.7485 301.16 59.4418 301.44 59.2552 301.8C59.0685 302.147 58.9752 302.58 58.9752 303.1C58.9752 303.513 59.0352 303.86 59.1552 304.14C59.2752 304.407 59.4552 304.613 59.6952 304.76C59.9352 304.893 60.2352 304.96 60.5952 304.96ZM72.1047 306.2C71.0914 306.2 70.3514 305.973 69.8847 305.52C69.4314 305.053 69.2047 304.247 69.2047 303.1V296.42H67.6847V295.62C67.9247 295.62 68.1914 295.573 68.4847 295.48C68.778 295.373 69.0314 295.207 69.2447 294.98C69.4714 294.74 69.658 294.447 69.8047 294.1C69.9514 293.753 70.0714 293.327 70.1647 292.82H71.0847V295.28H73.7047V296.42H71.0847V303.16C71.0847 303.84 71.2247 304.34 71.5047 304.66C71.7847 304.98 72.1514 305.14 72.6047 305.14C72.8447 305.14 73.0647 305.127 73.2647 305.1C73.4647 305.073 73.6714 305.04 73.8847 305V305.88C73.7114 305.96 73.4514 306.033 73.1047 306.1C72.758 306.167 72.4247 306.2 72.1047 306.2ZM74.7959 306V305.16H75.0559C75.3493 305.16 75.6159 305.133 75.8559 305.08C76.1093 305.013 76.3093 304.887 76.4559 304.7C76.6159 304.5 76.6959 304.207 76.6959 303.82V297.48C76.6959 297.08 76.6159 296.787 76.4559 296.6C76.3093 296.4 76.1093 296.273 75.8559 296.22C75.6159 296.153 75.3493 296.12 75.0559 296.12H74.9959V295.28H78.5759V303.72C78.5759 304.133 78.6493 304.447 78.7959 304.66C78.9426 304.86 79.1426 304.993 79.3959 305.06C79.6493 305.127 79.9226 305.16 80.2159 305.16H80.4759V306H74.7959ZM77.5559 293.28C77.2359 293.28 76.9626 293.187 76.7359 293C76.5226 292.813 76.4159 292.493 76.4159 292.04C76.4159 291.573 76.5226 291.253 76.7359 291.08C76.9626 290.893 77.2359 290.8 77.5559 290.8C77.8626 290.8 78.1293 290.893 78.3559 291.08C78.5826 291.253 78.6959 291.573 78.6959 292.04C78.6959 292.493 78.5826 292.813 78.3559 293C78.1293 293.187 77.8626 293.28 77.5559 293.28ZM86.4822 306.2C85.0422 306.2 83.9089 305.74 83.0822 304.82C82.2555 303.9 81.8422 302.5 81.8422 300.62C81.8422 298.753 82.2355 297.367 83.0222 296.46C83.8222 295.54 84.9955 295.08 86.5422 295.08C87.9822 295.08 89.1155 295.54 89.9422 296.46C90.7689 297.367 91.1822 298.753 91.1822 300.62C91.1822 302.5 90.7822 303.9 89.9822 304.82C89.1955 305.74 88.0289 306.2 86.4822 306.2ZM86.5222 305.16C87.1889 305.16 87.7222 304.993 88.1222 304.66C88.5222 304.313 88.8089 303.8 88.9822 303.12C89.1555 302.44 89.2422 301.607 89.2422 300.62C89.2422 299.62 89.1489 298.793 88.9622 298.14C88.7889 297.473 88.5022 296.973 88.1022 296.64C87.7022 296.307 87.1689 296.14 86.5022 296.14C85.8355 296.14 85.3022 296.307 84.9022 296.64C84.5022 296.973 84.2155 297.473 84.0422 298.14C83.8689 298.793 83.7822 299.62 83.7822 300.62C83.7822 301.607 83.8689 302.44 84.0422 303.12C84.2289 303.8 84.5222 304.313 84.9222 304.66C85.3222 304.993 85.8555 305.16 86.5222 305.16ZM92.8452 306V305.16H93.0052C93.3118 305.16 93.5852 305.127 93.8252 305.06C94.0785 304.993 94.2785 304.86 94.4252 304.66C94.5718 304.447 94.6452 304.133 94.6452 303.72V297.48C94.6452 297.08 94.5718 296.787 94.4252 296.6C94.2785 296.4 94.0852 296.273 93.8452 296.22C93.6052 296.153 93.3385 296.12 93.0452 296.12H92.9452V295.28H96.1852L96.4452 296.9H96.5452C96.8252 296.393 97.1185 296.013 97.4252 295.76C97.7452 295.493 98.0918 295.313 98.4652 295.22C98.8385 295.127 99.2385 295.08 99.6652 295.08C100.718 295.08 101.538 295.393 102.125 296.02C102.725 296.633 103.025 297.627 103.025 299V303.72C103.025 304.133 103.085 304.447 103.205 304.66C103.338 304.86 103.518 304.993 103.745 305.06C103.972 305.127 104.232 305.16 104.525 305.16H104.625V306H101.145V299.1C101.145 298.233 100.978 297.56 100.645 297.08C100.325 296.6 99.7585 296.36 98.9452 296.36C98.3452 296.36 97.8652 296.513 97.5052 296.82C97.1585 297.113 96.9052 297.507 96.7452 298C96.5985 298.493 96.5252 299.027 96.5252 299.6V303.82C96.5252 304.207 96.5985 304.5 96.7452 304.7C96.8918 304.887 97.0852 305.013 97.3252 305.08C97.5652 305.133 97.8318 305.16 98.1252 305.16H98.2252V306H92.8452Z" fill="#2F3631"/>
</svg>
